<?xml version="1.0" encoding="UTF-8" standalone="no"?>
<!-- Created with Inkscape (http://www.inkscape.org/) -->

<svg
   width="188.5092mm"
   height="118.10817mm"
   viewBox="0 0 188.5092 118.10817"
   version="1.1"
   id="svg6339"
   inkscape:version="1.2.2 (b0a8486541, 2022-12-01)"
   sodipodi:docname="api_structure.svg"
   xmlns:inkscape="http://www.inkscape.org/namespaces/inkscape"
   xmlns:sodipodi="http://sodipodi.sourceforge.net/DTD/sodipodi-0.dtd"
   xmlns="http://www.w3.org/2000/svg"
   xmlns:svg="http://www.w3.org/2000/svg">
  <sodipodi:namedview
     id="namedview6341"
     pagecolor="#ffffff"
     bordercolor="#000000"
     borderopacity="0.25"
     inkscape:showpageshadow="2"
     inkscape:pageopacity="0.0"
     inkscape:pagecheckerboard="0"
     inkscape:deskcolor="#d1d1d1"
     inkscape:document-units="mm"
     showgrid="false"
     inkscape:zoom="1.661685"
     inkscape:cx="590.06371"
     inkscape:cy="231.09074"
     inkscape:window-width="2494"
     inkscape:window-height="1524"
     inkscape:window-x="66"
     inkscape:window-y="37"
     inkscape:window-maximized="1"
     inkscape:current-layer="layer1" />
  <defs
     id="defs6336">
    <marker
       style="overflow:visible"
       id="marker7816"
       refX="0"
       refY="0"
       orient="auto-start-reverse"
       inkscape:stockid="Arrow5"
       markerWidth="5.8874264"
       markerHeight="6.6094756"
       viewBox="0 0 5.8874262 6.6094758"
       inkscape:isstock="true"
       inkscape:collect="always"
       preserveAspectRatio="xMidYMid">
      <path
         transform="scale(0.5)"
         style="fill:context-stroke;fill-rule:evenodd;stroke:context-stroke;stroke-width:1pt"
         d="m 6,0 c -3,1 -7,3 -9,5 0,0 0,-4 2,-5 -2,-1 -2,-5 -2,-5 2,2 6,4 9,5 z"
         id="path7814" />
    </marker>
    <marker
       style="overflow:visible"
       id="marker7732"
       refX="0"
       refY="0"
       orient="auto-start-reverse"
       inkscape:stockid="Arrow5"
       markerWidth="5.8874264"
       markerHeight="6.6094756"
       viewBox="0 0 5.8874262 6.6094758"
       inkscape:isstock="true"
       inkscape:collect="always"
       preserveAspectRatio="xMidYMid">
      <path
         transform="scale(0.5)"
         style="fill:context-stroke;fill-rule:evenodd;stroke:context-stroke;stroke-width:1pt"
         d="m 6,0 c -3,1 -7,3 -9,5 0,0 0,-4 2,-5 -2,-1 -2,-5 -2,-5 2,2 6,4 9,5 z"
         id="path7730" />
    </marker>
    <marker
       style="overflow:visible"
       id="marker7601"
       refX="0"
       refY="0"
       orient="auto-start-reverse"
       inkscape:stockid="Arrow5"
       markerWidth="5.8874264"
       markerHeight="6.6094756"
       viewBox="0 0 5.8874262 6.6094758"
       inkscape:isstock="true"
       inkscape:collect="always"
       preserveAspectRatio="xMidYMid">
      <path
         transform="scale(0.5)"
         style="fill:context-stroke;fill-rule:evenodd;stroke:context-stroke;stroke-width:1pt"
         d="m 6,0 c -3,1 -7,3 -9,5 0,0 0,-4 2,-5 -2,-1 -2,-5 -2,-5 2,2 6,4 9,5 z"
         id="path7599" />
    </marker>
    <marker
       style="overflow:visible"
       id="marker7567"
       refX="0"
       refY="0"
       orient="auto-start-reverse"
       inkscape:stockid="Arrow5"
       markerWidth="5.8874259"
       markerHeight="6.6094756"
       viewBox="0 0 5.8874262 6.6094758"
       inkscape:isstock="true"
       inkscape:collect="always"
       preserveAspectRatio="xMidYMid">
      <path
         transform="scale(0.5)"
         style="fill:context-stroke;fill-rule:evenodd;stroke:context-stroke;stroke-width:1pt"
         d="m 6,0 c -3,1 -7,3 -9,5 0,0 0,-4 2,-5 -2,-1 -2,-5 -2,-5 2,2 6,4 9,5 z"
         id="path7565" />
    </marker>
    <marker
       style="overflow:visible"
       id="Arrow5"
       refX="0"
       refY="0"
       orient="auto-start-reverse"
       inkscape:stockid="Arrow5"
       markerWidth="5.8874264"
       markerHeight="6.6094756"
       viewBox="0 0 5.8874262 6.6094758"
       inkscape:isstock="true"
       inkscape:collect="always"
       preserveAspectRatio="xMidYMid">
      <path
         transform="scale(0.5)"
         style="fill:context-stroke;fill-rule:evenodd;stroke:context-stroke;stroke-width:1pt"
         d="m 6,0 c -3,1 -7,3 -9,5 0,0 0,-4 2,-5 -2,-1 -2,-5 -2,-5 2,2 6,4 9,5 z"
         id="path8893" />
    </marker>
    <clipPath
       id="clip0_337_7900">
      <path
         fill="#ffffff"
         d="M 0,0 H 289 V 177 H 0 Z"
         id="path6550" />
    </clipPath>
    <mask
       id="mask0_337_7900"
       maskUnits="userSpaceOnUse"
       x="0"
       y="0"
       width="289"
       height="177">
      <path
         d="M 289,0 H 0 v 177 h 289 z"
         fill="#ffffff"
         id="path6489" />
    </mask>
    <linearGradient
       id="paint0_linear_337_7900"
       x1="117.844"
       y1="52.726002"
       x2="92.971001"
       y2="103.459"
       gradientUnits="userSpaceOnUse">
      <stop
         stop-color="#3F873F"
         id="stop6512" />
      <stop
         offset=".33"
         stop-color="#3F8B3D"
         id="stop6514" />
      <stop
         offset=".637"
         stop-color="#3E9638"
         id="stop6516" />
      <stop
         offset=".934"
         stop-color="#3DA92E"
         id="stop6518" />
      <stop
         offset="1"
         stop-color="#3DAE2B"
         id="stop6520" />
    </linearGradient>
    <linearGradient
       id="paint1_linear_337_7900"
       x1="102.464"
       y1="79.278"
       x2="172.246"
       y2="27.73"
       gradientUnits="userSpaceOnUse">
      <stop
         offset=".138"
         stop-color="#3F873F"
         id="stop6523" />
      <stop
         offset=".402"
         stop-color="#52A044"
         id="stop6525" />
      <stop
         offset=".713"
         stop-color="#64B749"
         id="stop6527" />
      <stop
         offset=".908"
         stop-color="#6ABF4B"
         id="stop6529" />
    </linearGradient>
    <linearGradient
       id="paint2_linear_337_7900"
       x1="74.834"
       y1="35.162998"
       x2="138.47301"
       y2="35.162998"
       gradientUnits="userSpaceOnUse">
      <stop
         offset=".092"
         stop-color="#6ABF4B"
         id="stop6532" />
      <stop
         offset=".287"
         stop-color="#64B749"
         id="stop6534" />
      <stop
         offset=".598"
         stop-color="#52A044"
         id="stop6536" />
      <stop
         offset=".862"
         stop-color="#3F873F"
         id="stop6538" />
    </linearGradient>
    <linearGradient
       id="paint3_linear_337_7900"
       x1="74.834999"
       y1="75.553001"
       x2="138.47301"
       y2="75.553001"
       gradientUnits="userSpaceOnUse">
      <stop
         offset=".092"
         stop-color="#6ABF4B"
         id="stop6541" />
      <stop
         offset=".287"
         stop-color="#64B749"
         id="stop6543" />
      <stop
         offset=".598"
         stop-color="#52A044"
         id="stop6545" />
      <stop
         offset=".862"
         stop-color="#3F873F"
         id="stop6547" />
    </linearGradient>
  </defs>
  <g
     inkscape:label="Layer 1"
     inkscape:groupmode="layer"
     id="layer1"
     transform="translate(-12.127274,23.298983)">
    <path
       d="m 26.223402,32.051329 c 0,-0.42995 0.3483,-0.77825 0.77824,-0.77825 0.42995,0 0.77825,0.3483 0.77825,0.77825 0,0.42995 -0.3483,0.77825 -0.77825,0.77825 -0.42994,0 -0.77824,-0.3483 -0.77824,-0.77825 z m 0.77928,6.29523 c 0.42994,0 0.77824,-0.3483 0.77824,-0.77824 0,-0.42995 -0.3483,-0.77825 -0.77824,-0.77825 -0.42995,0 -0.77825,0.3483 -0.77825,0.77825 0,0.42994 0.3483,0.77824 0.77825,0.77824 z m 0,3.95949 c -0.42995,0 -0.77825,0.3483 -0.77825,0.77825 0,0.42994 0.3483,0.77824 0.77825,0.77824 0.42994,0 0.77824,-0.3483 0.77824,-0.77824 0,-0.42995 -0.3483,-0.77825 -0.77824,-0.77825 z m 3.13478,-14.71745 v 16.33273 c 0,1.93374 -4.52993,2.94561 -9.005088,2.94561 -4.47517,0 -9.0051,-1.01182 -9.0051,-2.94561 v -16.33273 c 0,-1.93373 4.52993,-2.9456 9.0051,-2.9456 4.475158,0 9.005088,1.01182 9.005088,2.9456 z m -1.05833,6.93076 c -1.59991,0.97772 -4.78632,1.48313 -7.946758,1.48313 -3.16045,0 -6.34683,-0.50541 -7.94676,-1.48313 v 4.005 c 0,0.6408 2.80511,1.88722 7.94676,1.88722 5.141638,0 7.946758,-1.24642 7.946758,-1.88722 z m 0,-5.46735 c -1.59991,0.97772 -4.78632,1.48313 -7.946758,1.48313 -3.16045,0 -6.34683,-0.50541 -7.94676,-1.48313 v 4.005 c 0,0.6408 2.80511,1.88722 7.94676,1.88722 5.141638,0 7.946758,-1.24642 7.946758,-1.88722 z m -15.893518,-1.46346 c 0,0.64079 2.80511,1.88722 7.94676,1.88722 5.141638,0 7.946758,-1.24643 7.946758,-1.88722 0,-0.64079 -2.80512,-1.88722 -7.946758,-1.88722 -5.14165,0 -7.94676,1.24643 -7.94676,1.88722 z m 15.893518,16.33379 v -3.93462 c -1.59991,0.97771 -4.78632,1.48312 -7.946758,1.48312 -3.16045,0 -6.34683,-0.50541 -7.94676,-1.48312 v 3.93462 c 0,0.64079 2.80511,1.88722 7.94676,1.88722 5.141638,0 7.946758,-1.24643 7.946758,-1.88722 z"
       id="path6310"
       style="stroke-width:0.264583" />
    <g
       clip-path="url(#clip0_337_7900)"
       id="g6510"
       transform="matrix(0.14731235,0,0,0.14731235,46.721761,22.717808)">
      <mask
         id="mask6711"
         maskUnits="userSpaceOnUse"
         x="0"
         y="0"
         width="289"
         height="177">
        <path
           d="M 289,0 H 0 v 177 h 289 z"
           fill="#ffffff"
           id="path6709" />
      </mask>
      <g
         mask="url(#mask0_337_7900)"
         id="g6508">
        <path
           d="m 142.802,177 c -0.98,0 -1.895,-0.261 -2.744,-0.719 l -8.688,-5.161 c -1.307,-0.719 -0.653,-0.98 -0.262,-1.111 1.764,-0.588 2.091,-0.719 3.92,-1.764 0.196,-0.131 0.457,-0.066 0.653,0.065 l 6.663,3.986 c 0.262,0.13 0.588,0.13 0.784,0 l 26.065,-15.093 c 0.262,-0.131 0.392,-0.392 0.392,-0.719 v -30.121 c 0,-0.326 -0.13,-0.588 -0.392,-0.718 l -26.065,-15.028 c -0.261,-0.131 -0.588,-0.131 -0.784,0 l -26.064,15.028 c -0.262,0.13 -0.392,0.457 -0.392,0.718 v 30.121 c 0,0.261 0.13,0.588 0.392,0.719 l 7.12,4.116 c 3.854,1.96 6.271,-0.327 6.271,-2.614 v -29.728 c 0,-0.392 0.327,-0.784 0.784,-0.784 h 3.332 c 0.392,0 0.784,0.326 0.784,0.784 v 29.728 c 0,5.162 -2.809,8.168 -7.709,8.168 -1.502,0 -2.678,0 -6.01,-1.634 l -6.859,-3.92 a 5.515,5.515 0 0 1 -2.743,-4.77 v -30.12 a 5.514,5.514 0 0 1 2.743,-4.77 l 26.065,-15.093 c 1.633,-0.915 3.854,-0.915 5.487,0 l 26.065,15.093 a 5.513,5.513 0 0 1 2.744,4.77 v 30.12 c 0,1.96 -1.045,3.79 -2.744,4.77 l -26.065,15.093 c -0.784,0.327 -1.763,0.588 -2.743,0.588 z"
           fill="#5fa04e"
           id="path6492" />
        <path
           d="m 150.902,156.288 c -11.432,0 -13.784,-5.227 -13.784,-9.67 0,-0.392 0.327,-0.784 0.784,-0.784 h 3.397 c 0.392,0 0.719,0.261 0.719,0.653 0.522,3.463 2.025,5.162 8.949,5.162 5.488,0 7.839,-1.241 7.839,-4.182 0,-1.698 -0.653,-2.94 -9.211,-3.789 -7.12,-0.719 -11.562,-2.287 -11.562,-7.971 0,-5.293 4.442,-8.429 11.889,-8.429 8.362,0 12.477,2.875 13,9.147 0,0.196 -0.066,0.392 -0.196,0.588 -0.131,0.131 -0.327,0.262 -0.523,0.262 h -3.462 a 0.767,0.767 0 0 1 -0.719,-0.588 c -0.784,-3.594 -2.809,-4.77 -8.165,-4.77 -6.01,0 -6.729,2.091 -6.729,3.659 0,1.895 0.849,2.483 8.95,3.528 8.035,1.045 11.824,2.548 11.824,8.167 0,5.75 -4.769,9.017 -13,9.017 z m 37.627,-31.624 c 0,2.745 -2.286,5.031 -5.03,5.031 -2.743,0 -5.03,-2.221 -5.03,-5.031 0,-2.874 2.352,-5.031 5.03,-5.031 2.679,0 5.03,2.222 5.03,5.031 z m -9.276,0 c 0,2.353 1.895,4.247 4.181,4.247 2.352,0 4.246,-1.96 4.246,-4.247 0,-2.352 -1.894,-4.181 -4.246,-4.181 -2.221,0 -4.181,1.829 -4.181,4.181 z m 2.352,-2.809 h 1.96 c 0.653,0 1.959,0 1.959,1.503 0,1.045 -0.653,1.241 -1.045,1.372 0.784,0.065 0.849,0.588 0.915,1.307 0.065,0.457 0.13,1.241 0.261,1.502 h -1.176 c 0,-0.261 -0.196,-1.698 -0.196,-1.764 -0.065,-0.326 -0.196,-0.457 -0.588,-0.457 h -0.98 v 2.287 h -1.11 z m 1.045,2.483 h 0.849 c 0.719,0 0.85,-0.523 0.85,-0.784 0,-0.784 -0.523,-0.784 -0.85,-0.784 h -0.914 v 1.568 z"
           fill="#5fa04e"
           id="path6494" />
        <path
           fill-rule="evenodd"
           clip-rule="evenodd"
           d="M 61.994,59.196 A 3.324,3.324 0 0 0 60.295,56.321 L 32.663,40.313 c -0.457,-0.26 -0.98,-0.392 -1.503,-0.457 H 30.9 c -0.523,0 -1.045,0.196 -1.503,0.457 L 1.698,56.256 A 3.35,3.35 0 0 0 0,59.196 l 0.065,42.862 c 0,0.588 0.327,1.176 0.85,1.437 0.522,0.327 1.175,0.327 1.633,0 L 19.01,94.086 a 3.324,3.324 0 0 0 1.698,-2.874 v -20.06 c 0,-1.175 0.653,-2.286 1.699,-2.874 l 6.99,-4.051 c 0.522,-0.327 1.11,-0.457 1.698,-0.457 0.588,0 1.176,0.13 1.633,0.457 l 6.99,4.051 a 3.324,3.324 0 0 1 1.698,2.875 V 91.21 c 0,1.177 0.654,2.287 1.699,2.875 l 16.331,9.409 a 1.593,1.593 0 0 0 1.699,0 c 0.522,-0.261 0.849,-0.849 0.849,-1.437 V 59.196 Z m 133.133,-59 c -0.522,-0.261 -1.176,-0.261 -1.633,0 -0.522,0.327 -0.849,0.85 -0.849,1.437 v 42.47 c 0,0.392 -0.196,0.784 -0.588,1.045 a 1.25,1.25 0 0 1 -1.176,0 l -6.924,-3.985 a 3.367,3.367 0 0 0 -3.332,0 L 152.927,57.17 a 3.325,3.325 0 0 0 -1.698,2.874 v 31.95 c 0,1.177 0.653,2.287 1.698,2.875 l 27.698,16.008 a 3.367,3.367 0 0 0 3.332,0 l 27.698,-16.008 a 3.324,3.324 0 0 0 1.698,-2.874 V 12.349 a 3.35,3.35 0 0 0 -1.698,-2.94 z m -2.547,81.28 c 0,0.327 -0.131,0.588 -0.392,0.719 l -9.473,5.488 a 0.968,0.968 0 0 1 -0.849,0 l -9.472,-5.488 c -0.261,-0.13 -0.392,-0.457 -0.392,-0.719 V 70.5 c 0,-0.326 0.131,-0.588 0.392,-0.718 l 9.472,-5.489 a 0.968,0.968 0 0 1 0.849,0 l 9.473,5.489 c 0.261,0.13 0.392,0.457 0.392,0.718 v 10.977 z m 94.721,-11.238 c 1.046,-0.588 1.634,-1.699 1.634,-2.875 v -7.775 a 3.404,3.404 0 0 0 -1.634,-2.875 L 259.799,40.771 a 3.365,3.365 0 0 0 -3.331,0 L 228.77,56.779 a 3.325,3.325 0 0 0 -1.699,2.874 v 31.95 c 0,1.177 0.654,2.287 1.699,2.875 l 27.502,15.681 c 1.045,0.589 2.286,0.589 3.266,0 l 16.658,-9.277 c 0.523,-0.262 0.849,-0.85 0.849,-1.438 0,-0.588 -0.326,-1.176 -0.849,-1.437 L 248.367,81.999 c -0.522,-0.327 -0.849,-0.85 -0.849,-1.438 v -9.996 c 0,-0.588 0.327,-1.176 0.849,-1.438 l 8.689,-4.965 a 1.593,1.593 0 0 1 1.698,0 l 8.688,4.965 c 0.523,0.327 0.85,0.85 0.85,1.438 v 7.84 c 0,0.588 0.326,1.176 0.849,1.438 a 1.594,1.594 0 0 0 1.698,0 z"
           fill="#333333"
           id="path6496" />
        <path
           fill-rule="evenodd"
           clip-rule="evenodd"
           d="m 257.709,68.735 a 0.593,0.593 0 0 1 0.653,0 l 5.291,3.071 c 0.196,0.13 0.327,0.327 0.327,0.588 v 6.142 a 0.686,0.686 0 0 1 -0.327,0.588 l -5.291,3.07 a 0.593,0.593 0 0 1 -0.653,0 l -5.292,-3.07 a 0.685,0.685 0 0 1 -0.326,-0.588 v -6.142 c 0,-0.261 0.13,-0.457 0.326,-0.588 l 5.292,-3.07 z"
           fill="#5fa04e"
           id="path6498" />
        <path
           d="m 108.31,40.901 a 3.367,3.367 0 0 0 -3.332,0 L 77.476,56.778 c -1.045,0.589 -1.633,1.7 -1.633,2.875 v 31.82 c 0,1.176 0.653,2.287 1.633,2.875 l 27.502,15.877 a 3.367,3.367 0 0 0 3.332,0 l 27.502,-15.877 c 1.045,-0.588 1.633,-1.7 1.633,-2.875 v -31.82 a 3.406,3.406 0 0 0 -1.633,-2.874 L 108.31,40.9 Z"
           fill="url(#paint0_linear_337_7900)"
           id="path6500"
           style="fill:url(#paint0_linear_337_7900)" />
        <path
           d="M 135.877,56.779 108.244,40.9 a 4.543,4.543 0 0 0 -0.849,-0.326 L 76.5,93.5 c 0.261,0.327 0.673,0.804 1,1 l 27.478,15.725 c 0.784,0.457 1.698,0.588 2.548,0.326 l 29.069,-53.184 a 2.044,2.044 0 0 0 -0.718,-0.588 z"
           fill="url(#paint1_linear_337_7900)"
           id="path6502"
           style="fill:url(#paint1_linear_337_7900)" />
        <path
           d="m 104.063,35.086 -0.392,0.196 h 0.523 z"
           fill="url(#paint2_linear_337_7900)"
           id="path6504"
           style="fill:url(#paint2_linear_337_7900)" />
        <path
           d="M 135.809,94.348 C 136.593,93.89 137.3,93.033 137.3,92 L 107.196,40.51 c -0.784,-0.131 -1.633,-0.066 -2.352,0.391 L 77.408,56.713 107,110.682 a 4.54,4.54 0 0 0 1.241,-0.392 z"
           fill="url(#paint3_linear_337_7900)"
           id="path6506"
           style="fill:url(#paint3_linear_337_7900)" />
      </g>
    </g>
    <circle
       style="fill:#8a8a8a;fill-opacity:1;stroke:#000000;stroke-width:0.4;stroke-dasharray:none;stroke-opacity:1"
       id="path6948"
       cx="117.15858"
       cy="8.5853605"
       r="8.8434372" />
    <circle
       style="fill:#8a8a8a;fill-opacity:1;stroke:#000000;stroke-width:0.4;stroke-dasharray:none;stroke-opacity:1"
       id="path6948-9"
       cx="117.15858"
       cy="62.924942"
       r="8.8434372" />
    <circle
       style="fill:#8a8a8a;fill-opacity:1;stroke:#000000;stroke-width:0.296769;stroke-dasharray:none;stroke-opacity:1"
       id="path6948-9-3"
       cx="161.35629"
       cy="88.09967"
       r="6.5611348" />
    <circle
       style="fill:#8a8a8a;fill-opacity:1;stroke:#000000;stroke-width:0.296769;stroke-dasharray:none;stroke-opacity:1"
       id="path6948-9-9"
       cx="161.35629"
       cy="68.749344"
       r="6.5611348" />
    <circle
       style="fill:#8a8a8a;fill-opacity:1;stroke:#000000;stroke-width:0.296769;stroke-dasharray:none;stroke-opacity:1"
       id="path6948-9-0"
       cx="161.35629"
       cy="49.399021"
       r="6.5611348" />
    <g
       id="g9033">
      <circle
         style="fill:#8a8a8a;fill-opacity:1;stroke:#000000;stroke-width:0.296769;stroke-dasharray:none;stroke-opacity:1"
         id="path6948-9-8"
         cx="161.35629"
         cy="22.111189"
         r="6.5611348" />
      <circle
         style="fill:#8a8a8a;fill-opacity:1;stroke:#000000;stroke-width:0.296769;stroke-dasharray:none;stroke-opacity:1"
         id="path6948-9-85"
         cx="161.35629"
         cy="2.7608628"
         r="6.5611348" />
      <circle
         style="fill:#8a8a8a;fill-opacity:1;stroke:#000000;stroke-width:0.296769;stroke-dasharray:none;stroke-opacity:1"
         id="path6948-9-09"
         cx="161.35629"
         cy="-16.589464"
         r="6.5611348" />
    </g>
    <path
       style="fill:#8a8a8a;fill-opacity:1;stroke:#000000;stroke-width:0.4;stroke-dasharray:none;stroke-opacity:1"
       d="M 33.592637,35.754969 H 43.961946"
       id="path7498" />
    <path
       style="fill:none;fill-opacity:1;stroke:#000000;stroke-width:0.4;stroke-dasharray:none;stroke-opacity:1;marker-end:url(#marker7601)"
       d="m 91.623686,35.605586 c 0,0 5.808067,-0.74305 7.636338,-2.734998 3.447566,-3.756211 1.224826,-10.45208 3.906816,-14.788176 0.84244,-1.362009 3.60817,-3.172394 3.60817,-3.172394"
       id="path7500"
       sodipodi:nodetypes="cssc" />
    <path
       style="fill:none;fill-opacity:1;stroke:#000000;stroke-width:0.4;stroke-dasharray:none;stroke-opacity:1;marker-end:url(#Arrow5)"
       d="m 91.623686,35.904353 c 0,0 5.808057,0.743053 7.636325,2.734998 3.447569,3.756211 1.224829,10.45208 3.906829,14.788176 0.84244,1.362009 3.60817,3.172394 3.60817,3.172394"
       id="path7500-5"
       sodipodi:nodetypes="cssc" />
    <text
       xml:space="preserve"
       style="font-size:6.35px;font-family:'DejaVu Sans';-inkscape-font-specification:'DejaVu Sans, Normal';fill:#000000;fill-opacity:1;stroke:none;stroke-width:0.4;stroke-dasharray:none;stroke-opacity:1"
       x="89.550957"
       y="10.854989"
       id="text7665"><tspan
         sodipodi:role="line"
         id="tspan7663"
         style="fill:#000000;fill-opacity:1;stroke:none;stroke-width:0.4"
         x="89.550957"
         y="10.854989">v1.5</tspan></text>
    <g
       id="g9028"
       transform="translate(0.76329041)">
      <text
         xml:space="preserve"
         style="font-size:6.35px;font-family:'DejaVu Sans';-inkscape-font-specification:'DejaVu Sans, Normal';fill:#000000;fill-opacity:1;stroke:none;stroke-width:0.4;stroke-dasharray:none;stroke-opacity:1"
         x="178.8109"
         y="50.516781"
         id="text7665-1"><tspan
           sodipodi:role="line"
           id="tspan7663-5"
           style="fill:#000000;fill-opacity:1;stroke:none;stroke-width:0.4"
           x="178.8109"
           y="50.516781">apps</tspan></text>
      <text
         xml:space="preserve"
         style="font-size:6.35px;font-family:'DejaVu Sans';-inkscape-font-specification:'DejaVu Sans, Normal';fill:#000000;fill-opacity:1;stroke:none;stroke-width:0.4;stroke-dasharray:none;stroke-opacity:1"
         x="179.43877"
         y="71.116638"
         id="text7665-9"><tspan
           sodipodi:role="line"
           id="tspan7663-8"
           style="fill:#000000;fill-opacity:1;stroke:none;stroke-width:0.4"
           x="179.43877"
           y="71.116638">data</tspan></text>
      <text
         xml:space="preserve"
         style="font-size:6.35px;font-family:'DejaVu Sans';-inkscape-font-specification:'DejaVu Sans, Normal';fill:#000000;fill-opacity:1;stroke:none;stroke-width:0.4;stroke-dasharray:none;stroke-opacity:1"
         x="172.73065"
         y="90.466965"
         id="text7665-4"><tspan
           sodipodi:role="line"
           id="tspan7663-81"
           style="fill:#000000;fill-opacity:1;stroke:none;stroke-width:0.4"
           x="172.73065"
           y="90.466965">dbtables</tspan></text>
    </g>
    <g
       id="g9020"
       transform="translate(0,-0.12974427)">
      <text
         xml:space="preserve"
         style="font-size:6.35px;font-family:'DejaVu Sans';-inkscape-font-specification:'DejaVu Sans, Normal';fill:#000000;fill-opacity:1;stroke:none;stroke-width:0.4;stroke-dasharray:none;stroke-opacity:1"
         x="179.57419"
         y="-15.351258"
         id="text7665-1-0"><tspan
           sodipodi:role="line"
           id="tspan7663-5-3"
           style="fill:#000000;fill-opacity:1;stroke:none;stroke-width:0.4"
           x="179.57419"
           y="-15.351258">apps</tspan></text>
      <text
         xml:space="preserve"
         style="font-size:6.35px;font-family:'DejaVu Sans';-inkscape-font-specification:'DejaVu Sans, Normal';fill:#000000;fill-opacity:1;stroke:none;stroke-width:0.4;stroke-dasharray:none;stroke-opacity:1"
         x="180.20206"
         y="5.2485995"
         id="text7665-9-0"><tspan
           sodipodi:role="line"
           id="tspan7663-8-4"
           style="fill:#000000;fill-opacity:1;stroke:none;stroke-width:0.4"
           x="180.20206"
           y="5.2485995">data</tspan></text>
      <text
         xml:space="preserve"
         style="font-size:6.35px;font-family:'DejaVu Sans';-inkscape-font-specification:'DejaVu Sans, Normal';fill:#000000;fill-opacity:1;stroke:none;stroke-width:0.4;stroke-dasharray:none;stroke-opacity:1"
         x="173.49394"
         y="24.598927"
         id="text7665-4-4"><tspan
           sodipodi:role="line"
           id="tspan7663-81-4"
           style="fill:#000000;fill-opacity:1;stroke:none;stroke-width:0.4"
           x="173.49394"
           y="24.598927">dbtables</tspan></text>
    </g>
    <text
       xml:space="preserve"
       style="font-size:6.35px;font-family:'DejaVu Sans';-inkscape-font-specification:'DejaVu Sans, Normal';fill:#000000;fill-opacity:1;stroke:none;stroke-width:0.4;stroke-dasharray:none;stroke-opacity:1"
       x="89.484291"
       y="65.236427"
       id="text7665-6"><tspan
         sodipodi:role="line"
         id="tspan7663-1"
         style="fill:#000000;fill-opacity:1;stroke:none;stroke-width:0.4"
         x="89.484291"
         y="65.236427">v2.0</tspan></text>
    <path
       style="fill:none;fill-opacity:1;stroke:#000000;stroke-width:0.4;stroke-dasharray:none;stroke-opacity:1;marker-start:url(#marker7816);marker-end:url(#marker7732)"
       d="m 152.59184,50.579858 c 0,0 -3.38005,0.09548 -4.8124,0.874287 -3.90941,2.125662 -5.21752,7.631961 -9.1434,9.727062 -3.23051,1.72401 -10.83765,1.794732 -10.83765,1.794732 0,0 6.96942,4.111752 10.83765,5.100809 2.95826,0.756391 6.11479,0.167574 9.1434,0.556147 1.62166,0.20806 4.8124,0.947783 4.8124,0.947783"
       id="path7726"
       sodipodi:nodetypes="csscssc" />
    <path
       style="fill:none;fill-opacity:1;stroke:#000000;stroke-width:0.4;stroke-dasharray:none;stroke-opacity:1;marker-end:url(#marker7732)"
       d="m 127.79839,62.975939 c 0,0 7.03092,7.95736 10.47651,11.996349 3.05231,3.577983 5.39383,7.858935 9.03192,10.839356 1.54999,1.269797 5.28502,2.86397 5.28502,2.86397"
       id="path7728"
       sodipodi:nodetypes="cssc" />
    <path
       style="fill:none;fill-opacity:1;stroke:#000000;stroke-width:0.4;stroke-dasharray:none;stroke-opacity:1;marker-start:url(#marker7567);marker-end:url(#marker7567)"
       d="m 152.53219,-16.492268 c 0,0 -3.36078,1.416429 -4.75275,2.555735 -3.6947,3.024049 -5.95678,7.4699509 -9.1434,11.0253834 -3.46664,3.86786121 -10.83765,11.1958408 -10.83765,11.1958408 0,0 7.3162,-0.4669624 10.83765,-1.4031765 3.18291,-0.84621 5.93781,-2.9887218 9.1434,-3.7444707 1.541,-0.3633044 4.7366,-0.3529155 4.7366,-0.3529155"
       id="path8001"
       sodipodi:nodetypes="csscssc" />
    <path
       style="fill:none;fill-opacity:1;stroke:#000000;stroke-width:0.4;stroke-dasharray:none;stroke-opacity:1;marker-end:url(#marker7567)"
       d="m 127.79839,8.2846912 c 0,0 7.08332,5.7864248 10.83765,8.3894878 2.94471,2.041716 5.71858,4.599289 9.1434,5.653109 1.42378,0.438098 4.46479,0.193297 4.46479,0.193297"
       id="path8003"
       sodipodi:nodetypes="cssc" />
  </g>
</svg>
